<?xml version="1.0" encoding="UTF-8"?>
<svg viewBox="0 0 744.0944875 1052.3621875" xmlns="http://www.w3.org/2000/svg">
 <path d="m44 230.86h152.5v152.5h-152.5z" fill="#fff" stroke="#000" stroke-width="8"/>
 <g transform="translate(-365.71 142.14)">
  <path d="m440 122.38c0.67801 8.971 3.2522 17.19 7.0312 24.406l7.0312-10.969-2.0312-0.75-2.8125-1 1.4688-2.5625 5.1562-9.125h-15.844zm21.594 0-5.0938 9 2.1875 0.78125 2.9688 1.0625-1.6875 2.625-10.125 15.844c8.2624 12.541 20.86 20.688 35.156 20.688 23.655 0 42.885-22.022 45-50h-68.406z"/>
  <path d="m480 167.36h10v45h-10z"/>
  <path d="m460 204.36h50v8h-50z"/>
 </g>
 <path d="m219 55.861h152.5v152.5h-152.5z" fill="#fff" stroke="#000" stroke-width="8"/>
 <g transform="translate(-154.55 -6.0609)">
  <path d="m400 182.36h100v10h-100z"/>
  <path d="m417 107.36h16v70h-16z"/>
  <path transform="matrix(.9802 0 0 .94319 32.902 40.874)" d="m415.32 75.794h-30.606l7.6515-13.253 7.6515-13.253 7.6515 13.253 7.6515 13.253z"/>
  <path d="m467 107.36h16v70h-16z"/>
  <path transform="matrix(.9802 0 0 .94319 82.902 40.874)" d="m415.32 75.794h-30.606l7.6515-13.253 7.6515-13.253 7.6515 13.253 7.6515 13.253z"/>
 </g>
 <path d="m219 230.86h152.5v152.5h-152.5z" fill="#fff" stroke="#000" stroke-width="8"/>
 <g transform="translate(-153 9.5)">
  <path d="m450 257.38c-27.6 0-50 15.68-50 35 0-3.312 5.6-6 12.5-6s12.5 2.688 12.5 6c0-3.312 5.6-6 12.5-6s12.5 2.688 12.5 6c0-3.312 5.6-6 12.5-6s12.5 2.688 12.5 6c0-3.312 5.6-6 12.5-6s12.5 2.688 12.5 6c0-19.32-22.4-35-50-35z"/>
  <path d="m446 247.38v90c1e-5 2.208-1.792 4-4 4s-4-1.792-4-4v-2h-8v2c0 6.624 5.376 12 12 12s12-5.376 12-12v-90h-8z"/>
 </g>
 <path d="m44 55.861h152.5v152.5h-152.5z" fill="#fff" stroke="#000" stroke-width="8"/>
 <g transform="translate(-340 -18)">
  <g transform="translate(20 6)">
   <path d="m420 107.36 20-15 20 15-20 15-20-15z"/>
   <path d="m460 113.61-17 12.75v20l17-12.75v-20z"/>
   <path d="m420 113.61 17 12.75v20l-17-12.75v-20z"/>
  </g>
  <path d="m454.99 194.68v-15.285c0-8.357-11.39-20.541-18.777-29.082-2.0207-1.9926-5.654-2.7653-7.5727-0.87337-1.7042 1.6804-1.5756 5.8071-0.22142 7.8603l7.4398 11.179c1.243 2.1229-1.8071 3.842-3.6313 1.5721-9.5245-12.896-12.133-15.511-12.133-20.699v-21.048c0-3.0339-2.2189-5.9389-5.0538-5.9389-2.6978 0-5.044 2.7938-5.044 5.4273v40.683c0 5.2724 16.651 21.22 16.651 28.65v5.2402h28.349c-0.00231-2.5619-0.00464-5.1237-0.00695-7.6856z" fill-rule="evenodd"/>
  <path d="m465.01 194.68v-15.285c0-8.357 11.39-20.541 18.777-29.082 2.0207-1.9926 5.654-2.7653 7.5727-0.87337 1.7042 1.6804 1.5756 5.8071 0.22142 7.8603l-7.4398 11.179c-1.243 2.1229 1.8071 3.842 3.6313 1.5721 9.5245-12.896 12.133-15.511 12.133-20.699v-21.048c0-3.0339 2.2189-5.9389 5.0538-5.9389 2.6978 0 5.044 2.7938 5.044 5.4273v40.683c0 5.2724-16.651 21.22-16.651 28.65v5.2402h-28.349c0.00231-2.5619 0.00464-5.1237 0.00695-7.6856z" fill-rule="evenodd"/>
 </g>
</svg>
